HIERARCHY
ROOT pelvis
{
  OFFSET 0 100 0
  CHANNELS 6 Xposition Yposition Zposition Zrotation Xrotation Yrotation
  JOINT pelvis_right_femur
  {
    OFFSET -10.78128 -3.44521 -0.5502486
    CHANNELS 3 Zrotation Xrotation Yrotation
    JOINT right_femur_tibia
    {
      OFFSET -0.8047443 -44.0398 -0.1307829
      CHANNELS 3 Zrotation Xrotation Yrotation
      JOINT right_tibia_foot
      {
        OFFSET 3.006224 -47.83518 -5
        CHANNELS 3 Zrotation Xrotation Yrotation
        End Site
        {
          OFFSET 0 -5 15
        }
      }
    }
  }
  JOINT pelvis_left_femur
  {
    OFFSET 10.78128 -3.44521 -0.5502486
    CHANNELS 3 Zrotation Xrotation Yrotation
    JOINT left_femur_tibia
    {
      OFFSET 0.8047443 -44.0398 -0.1307829
      CHANNELS 3 Zrotation Xrotation Yrotation
      JOINT left_tibia_foot
      {
        OFFSET -4.370144 -48.10324 -4.275266
        CHANNELS 3 Zrotation Xrotation Yrotation
        End Site
        {
          OFFSET 0 -5 15
        }
      }
    }
  }
  JOINT pelvis_spine1
  {
    OFFSET 0 6.468898 -3.129235
    CHANNELS 3 Zrotation Xrotation Yrotation
    JOINT spine1
    {
      OFFSET 0 23.15396 4.99043
      CHANNELS 3 Zrotation Xrotation Yrotation
      JOINT spine2
      {
        OFFSET 0 20.79997 -5.064912
        CHANNELS 3 Zrotation Xrotation Yrotation
        JOINT neck
        {
          OFFSET 0 14.38658 9.616178
          CHANNELS 3 Zrotation Xrotation Yrotation
          End Site
          {
            OFFSET 0 20 0
          }
        }
      }
      JOINT right_manubrium
      {
        OFFSET -5.722621 16.35077 3.967754
        CHANNELS 3 Zrotation Xrotation Yrotation
        JOINT right_clavicle
        {
          OFFSET -13.16364 1.694482 -4.693211
          CHANNELS 3 Zrotation Xrotation Yrotation
          JOINT right_humerus
          {
            OFFSET -28.5034 -0.3100689 -2.792744
            CHANNELS 3 Zrotation Xrotation Yrotation
            JOINT right_radius
            {
              OFFSET -25.15693 0.02248979 -1.271978
              CHANNELS 3 Zrotation Xrotation Yrotation
              End Site
              {
                OFFSET -15 0 0
              }
            }
          }
        }
      }
      JOINT left_manubrium
      {
        OFFSET 5.722621 16.35077 3.967754
        CHANNELS 3 Zrotation Xrotation Yrotation
        JOINT left_clavicle
        {
          OFFSET 13.16364 1.694482 -4.693211
          CHANNELS 3 Zrotation Xrotation Yrotation
          JOINT left_humerus
          {
            OFFSET 29.39168 -1.063119 -2.237045
            CHANNELS 3 Zrotation Xrotation Yrotation
            JOINT left_radius
            {
              OFFSET 24.59957 -0.9528479 0.9047498
              CHANNELS 3 Zrotation Xrotation Yrotation
              End Site
              {
                OFFSET 15 -0 -0
              }
            }
          }
        }
      }
    }
  }
}
MOTION
Frames: 11
Frame Time: 0.0416666666667
0 103.5113 0 3.861813 -4.646534 0.1184658 -4.770106 2.192608 7.149924 -0 19.29339 -0 -7.43248 -17.22286 -0.3327935 -8.436432 10.82691 -22.23418 -0 7.734248 -0 12.88552 -12.25277 32.28381 -5.487045 -4.745518 6.579048 0.4953696 11.37988 -4.575288 2.970725 22.65049 3.616111 0.87657 -23.06836 8.68298 11.86024 -17.1413 15.30244 83.33645 34.89102 -20.85874 -0 0 13.97968 -13.65426 1.653284 13.8752 10.33409 -25.5572 -1.010837 -104.5388 31.80122 27.9456 0 0 -13.17011 4.712509 31.65944 8.098751
0.6581468 103.3656 0.6955644 3.821968 -4.62487 0.4125368 -4.3781 -0.9152861 7.82569 -0 25.64843 -0 -7.47111 -16.61541 -1.419976 -8.613002 11.32103 -21.73933 -0 7.606299 -0 12.78982 -13.16211 31.6598 -5.531608 -4.129078 6.254108 0.4920145 11.52748 -4.727031 2.965738 22.29121 3.872433 1.061823 -23.50963 8.903069 11.58144 -17.2826 15.01145 82.97035 34.58552 -20.41508 -0 0 13.98615 -13.83682 1.583377 14.01029 10.20656 -25.2949 -0.8763236 -104.0215 31.61229 27.50279 0 0 -13.67185 5.332009 31.16823 7.860014
1.260499 103.3153 1.464731 3.573774 -4.714262 0.8054133 -3.681823 -4.599533 8.4826 -0 32.66072 -0 -7.423008 -15.25804 -2.575966 -8.526801 12.02199 -21.32945 -0 7.376386 -0 12.6249 -14.03561 30.99235 -5.597409 -3.241156 5.7494 0.5485401 11.69273 -5.001801 3.027858 21.96197 4.147354 1.32253 -23.9704 9.180735 11.32342 -17.45798 14.70942 82.64138 34.26272 -19.94001 -0 0 13.92574 -14.00838 1.52178 14.10986 10.07623 -25.18967 -0.7428733 -103.3846 31.38699 26.82638 0 0 -14.39389 6.01749 30.61082 7.618604
1.659554 103.3036 2.33252 3.287694 -4.658396 1.444283 -2.62421 -8.697204 8.884216 -0 39.1082 -0 -7.380627 -13.61425 -3.730765 -8.1738 12.8098 -20.80851 -0 6.927009 -0 12.37392 -14.8833 30.31153 -5.667513 -2.228982 5.171862 0.6850015 11.81432 -5.392682 3.004605 21.63165 4.504269 1.570878 -24.49568 9.469264 11.14971 -17.61031 14.36636 82.43789 33.9204 -19.54845 -0 0 13.77042 -14.15172 1.479554 14.15193 9.865151 -25.13149 -0.592074 -102.6136 31.15027 25.73363 0 0 -15.44702 6.730582 30.0105 7.372243
2.044175 103.2574 3.51083 2.781589 -4.520758 1.658599 -1.14808 -12.96327 8.745205 -0 43.41641 -0 -7.492725 -12.39345 -4.51375 -7.68365 13.58883 -20.24534 -0 6.572417 -0 12.02986 -15.70755 29.69832 -5.679864 -1.279918 4.714708 0.9709577 11.89732 -5.844758 2.999915 21.31819 4.878056 1.837838 -24.99629 9.79311 11.00937 -17.6901 14.04796 82.28968 33.59414 -19.35732 -0 0 13.3816 -14.23053 1.477334 14.1104 9.633995 -25.1546 -0.610725 -101.7373 31.0178 24.7223 0 0 -16.31445 7.227998 29.37117 7.201937
2.414581 103.2978 4.989374 2.124673 -4.208633 1.480808 0.4165385 -17.31373 8.128599 -0 44.76366 -0 -7.714371 -11.40029 -4.926354 -7.181498 14.34043 -19.6187 -0 6.312022 -0 11.58922 -16.52341 29.11864 -5.614835 -0.5039806 4.487674 1.366035 11.84845 -6.232117 3.013087 21.04358 5.239061 2.099988 -25.41194 10.12767 10.79662 -17.66994 13.78112 82.31027 33.30413 -19.37411 -0 0 12.81775 -14.22692 1.537981 14.02012 9.446642 -25.25069 -0.7382794 -100.875 30.94739 23.75656 0 0 -17.08533 7.519723 28.7049 7.111983
2.735539 103.2075 6.814381 1.540036 -3.73376 1.05579 1.859909 -21.35886 7.31025 -0 43.45115 -0 -7.922196 -10.05446 -4.992542 -6.783218 15.12535 -18.98353 -0 6.118261 -0 11.14609 -17.44591 28.52704 -5.431381 0.01505083 4.639544 1.679485 11.80273 -6.28802 2.979842 20.8137 5.576065 2.311779 -25.73538 10.403 10.49302 -17.45041 13.4507 82.57494 33.05877 -19.73864 -0 0 11.93706 -14.09541 1.687193 13.80834 9.299626 -25.33705 -0.5434326 -100.0729 30.78608 22.88115 0 0 -17.7551 7.765419 27.99319 7.092811
3.132695 102.8095 9.180498 1.098475 -3.048592 0.2162954 2.931518 -24.87594 6.766802 -0 38.99805 -0 -7.950253 -8.838273 -4.631464 -6.5969 15.89703 -18.46611 -0 6.124215 -0 10.67456 -18.44936 27.81418 -5.251685 0.1499472 4.917459 2.051235 11.64284 -6.273618 2.796063 20.54581 5.957015 2.411154 -26.02377 10.62861 10.11488 -17.12222 13.13094 82.9662 32.87431 -20.29445 -0 0 10.81759 -13.84779 1.927155 13.49449 9.275298 -25.2528 -0.4132327 -99.62838 30.57995 22.13272 0 0 -18.72589 7.968564 27.27698 7.038047
3.537218 102.1881 11.67299 0.8730669 -2.116133 -0.2376249 3.658313 -28.00869 6.441273 -0 32.87323 -0 -7.929924 -7.71342 -4.042508 -6.901233 16.57939 -17.37214 -0 6.23598 -0 10.13282 -19.3953 27.10092 -5.123798 0.3435771 5.112637 2.444155 11.31967 -6.359323 2.541618 20.24165 6.337229 2.443367 -26.29688 10.80935 9.863784 -16.86481 12.8621 83.43025 32.73437 -20.82218 -0 0 9.616887 -13.53651 2.240047 13.1139 9.12876 -25.27287 -0.5053358 -99.08471 30.41299 21.4381 0 0 -19.56102 8.035219 26.50925 7.00899
3.925771 101.4866 14.61933 0.7218774 -1.21817 -0.3622017 4.169598 -30.59179 6.254096 -0 26.71235 -0 -7.994866 -6.690666 -3.48076 -7.035707 17.36833 -16.29243 -0 6.631216 -0 9.455925 -20.2934 26.00461 -5.017461 0.4862414 5.006506 2.787777 11.16372 -6.72301 2.376807 20.08191 6.669875 2.530446 -26.53611 11.00694 9.221857 -16.56227 12.536 83.78685 32.66296 -21.46721 -0 0 8.715177 -13.03534 2.664223 12.81154 8.937356 -25.0699 -0.9564739 -98.41139 30.29929 20.78167 0 0 -20.17598 7.938955 25.70648 7.044657
4.233238 100.6537 18.00634 0.5198624 -0.4813888 -0.0110318 4.538527 -32.55737 6.018559 -0 21.84977 -0 -8.187165 -5.695745 -3.171409 -6.928143 18.33287 -15.16034 -0 7.569849 -0 8.516135 -20.95564 24.49357 -4.730804 0.6423003 4.769871 3.125593 10.93532 -7.18358 2.130921 19.92363 7.008423 2.607965 -26.70392 11.08644 8.763414 -16.26901 12.18522 84.25389 32.57822 -22.11289 -0 0 7.839782 -12.54323 3.127824 12.49882 8.564862 -24.9072 -1.349511 -97.74278 30.13584 20.30328 0 0 -20.40444 7.706697 24.8763 7.216391
